<?xml version="1.0" encoding="UTF-8" standalone="no"?><!DOCTYPE svg PUBLIC "-//W3C//DTD SVG 1.1//EN" "http://www.w3.org/Graphics/SVG/1.1/DTD/svg11.dtd"><svg width="100%" height="100%" viewBox="0 0 5120 2880" version="1.1" xmlns="http://www.w3.org/2000/svg" xmlns:xlink="http://www.w3.org/1999/xlink" xml:space="preserve" xmlns:serif="http://www.serif.com/" style="fill-rule:evenodd;clip-rule:evenodd;"><g transform="matrix(1.33333,0,0,1.33333,0,0)"><rect x="0" y="0" width="3840" height="2160" style="fill:#f5f5f2;"/><g id="lines" transform="matrix(0.819973,0,0,0.819973,153.79,174.633)"><g transform="matrix(1.20353,0,0,0.284123,-525.967,902.2)"><path d="M2306.9,1201.92C2306.9,1214.65 2304.46,1224.99 2301.45,1224.99L1859.43,1224.99C1856.42,1224.99 1853.98,1214.65 1853.98,1201.92C1853.98,1189.18 1856.42,1178.85 1859.43,1178.85L2301.45,1178.85C2304.46,1178.85 2306.9,1189.18 2306.9,1201.92Z" style="fill:#35a77c;"/></g><g transform="matrix(1.32087,0,0,0.284123,-743.521,841.571)"><path d="M2306.9,1201.92C2306.9,1214.65 2304.67,1224.99 2301.93,1224.99L1858.94,1224.99C1856.2,1224.99 1853.98,1214.65 1853.98,1201.92C1853.98,1189.18 1856.2,1178.85 1858.94,1178.85L2301.93,1178.85C2304.67,1178.85 2306.9,1189.18 2306.9,1201.92Z" style="fill:#3a94c5;"/></g><g transform="matrix(1.48361,0,0,0.284123,-1045.24,780.197)"><path d="M2306.9,1201.92C2306.9,1214.65 2304.92,1224.99 2302.48,1224.99L1858.4,1224.99C1855.96,1224.99 1853.98,1214.65 1853.98,1201.92C1853.98,1189.18 1855.96,1178.85 1858.4,1178.85L2302.48,1178.85C2304.92,1178.85 2306.9,1189.18 2306.9,1201.92Z" style="fill:#df69ba;"/></g><g transform="matrix(1.70979,0,0,0.284123,-1464.56,719.686)"><path d="M2306.9,1201.92C2306.9,1214.65 2305.18,1224.99 2303.06,1224.99L1857.82,1224.99C1855.7,1224.99 1853.98,1214.65 1853.98,1201.92C1853.98,1189.18 1855.7,1178.85 1857.82,1178.85L2303.06,1178.85C2305.18,1178.85 2306.9,1189.18 2306.9,1201.92Z" style="fill:#f85552;"/></g><g transform="matrix(1.99563,0,0,0.284123,-1994.51,658.664)"><path d="M2306.9,1201.92C2306.9,1214.65 2305.43,1224.99 2303.61,1224.99L1857.27,1224.99C1855.45,1224.99 1853.98,1214.65 1853.98,1201.92C1853.98,1189.18 1855.45,1178.85 1857.27,1178.85L2303.61,1178.85C2305.43,1178.85 2306.9,1189.18 2306.9,1201.92Z" style="fill:#f57d26;"/></g><g transform="matrix(2.334,0,0,0.284123,-2621.85,597.371)"><path d="M2306.9,1201.92C2306.9,1214.65 2305.64,1224.99 2304.09,1224.99L1856.79,1224.99C1855.24,1224.99 1853.98,1214.65 1853.98,1201.92C1853.98,1189.18 1855.24,1178.85 1856.79,1178.85L2304.09,1178.85C2305.64,1178.85 2306.9,1189.18 2306.9,1201.92Z" style="fill:#d69a00;"/></g><g transform="matrix(2.7095,0,0,0.284123,-3318.02,536.64)"><path d="M2306.9,1201.92C2306.9,1214.65 2305.81,1224.99 2304.48,1224.99L1856.4,1224.99C1855.07,1224.99 1853.98,1214.65 1853.98,1201.92C1853.98,1189.18 1855.07,1178.85 1856.4,1178.85L2304.48,1178.85C2305.81,1178.85 2306.9,1189.18 2306.9,1201.92Z" style="fill:#8da101;"/></g></g><g transform="matrix(0.152694,0,0,0.152694,1496.1,1025.32)"><g transform="matrix(1,0,0,1,-1312.5,-1520.83)"><g id="g4472" transform="matrix(1.36863,0,0,1.36863,1425.93,1344.87)"><g id="Layer-1" serif:id="Layer 1"><g id="g44721" serif:id="g4472"><path id="path4734" d="M-330.4,-790.236C-349.755,-751.978 -362.496,-704.94 -363.606,-647.24C-368.31,-402.495 -352.962,-440.348 -362.43,-328.043C-366.783,-276.417 -372.576,-257.249 -398.846,-194.981C-427.429,-127.228 -458.076,-88.654 -500.604,-29.293C-553.357,44.338 -626.068,145.215 -665.875,226.073C-688.63,271.956 -707.624,341.909 -714.701,388.332C-719.433,419.362 -719.983,459.485 -718.923,497.087C-746.978,521.46 -761.388,562.511 -790.215,593.806C-808.81,613.945 -844.75,620.486 -884.584,628.202C-918.76,634.742 -954.921,648.046 -967.562,668.405C-968.974,670.676 -970.249,673.031 -971.42,675.451C-1000.2,730.868 -964.976,825.981 -982.156,896.34C-989.432,926.254 -1001.85,954.403 -1002.08,980.2C-1002.15,993.504 -999.136,1007.61 -989.874,1023.64C-979.732,1041.28 -957.462,1053.84 -925.784,1064.8C-896.238,1075.01 -857.872,1083.98 -813.26,1094.49L-797.825,1098.09C-777.761,1102.87 -757.77,1107.64 -737.558,1111.69C-724.402,1114.41 -716.757,1115.73 -710.219,1116.91C-681.776,1121.98 -670.972,1123.96 -595.123,1153.58C-576.821,1160.71 -556.537,1168.35 -535.076,1174.89C-492.668,1188.05 -444.748,1197.61 -400.501,1189.59C-378.084,1185.55 -356.918,1177.03 -338.103,1162.33C-318.626,1147.11 -299.884,1126.61 -286.581,1105.81C-283.025,1100.26 -279.736,1094.52 -276.858,1088.61C-274.334,1083.63 -272.094,1078.52 -270.224,1073.3C-268.441,1068.55 -266.955,1063.62 -265.872,1058.67C-248.026,1049.77 -203.866,1036.34 -98.723,1035.32C59.737,1033.78 165.278,1090.96 165.278,1090.96L165.355,1089.79C166.677,1097.28 168.295,1104.26 170.354,1110.95C173.368,1120.73 177.409,1129.69 182.848,1138.37C188.361,1146.97 195.196,1155.12 203.869,1163.14C213.276,1171.81 224.594,1179.82 237.531,1186.66C249.585,1192.98 263.108,1198.27 277.954,1202.16C291.477,1205.69 306.103,1208.05 321.61,1208.78C336.09,1209.52 351.229,1208.86 367.032,1206.58C393.711,1202.75 414.29,1194.3 432.002,1183.35C449.274,1172.69 463.386,1159.9 477.791,1146.82L478.233,1146.45C487.714,1137.86 497.342,1129.11 507.999,1121.1C515.128,1115.73 521.67,1110.73 527.917,1105.88C537.178,1098.76 542.324,1094.71 547.542,1090.6C563.197,1078.32 579.364,1065.54 595.534,1053.48C612.293,1041.06 630.078,1028.42 649.409,1016.07C664.034,1006.66 680.497,996.007 696.3,985.645C712.617,974.914 729.667,963.669 745.762,952.645C774.511,933.118 814.189,908.916 829.219,877.48C834.239,867.755 836.934,857.331 836.206,846.126C833.854,810.186 791.299,777.774 753.67,745.581C735.368,729.853 716.921,714.272 707.293,698.323C699.503,685.461 690.094,666.058 687.45,651.947C680.022,612.815 680.18,583.582 661.652,557.733C644.649,534.01 629.787,527.186 603.579,524.226C599.651,523.782 595.958,523.231 592.378,522.649C609.404,459.969 615.065,420.031 610.095,367.667C592.683,184.228 475.221,49.914 411.345,-41.019C369.649,-100.378 321.333,-161.476 300.488,-202.159C279.643,-242.843 264.122,-299.439 253.963,-332.223C243.957,-364.514 238.67,-441.325 237.351,-565.9C242.054,-756.772 182.963,-844.894 111.451,-899.87C39.938,-954.846 -65.016,-953.964 -102.867,-950.657L-102.867,-950.658C-134.6,-947.891 -268.091,-915.869 -330.395,-790.236L-330.4,-790.236Z" style="fill:#5c6a72;"/><path id="path4736" d="M-806.048,629.3C-843.653,647.368 -930.248,647 -951.255,682.991C-974.317,722.578 -959.407,766.428 -959.187,816.961C-959.11,852.729 -959.702,892.539 -974.757,934.918C-987.097,969.807 -991.284,982.146 -973.584,1012.85C-955.883,1043.62 -879.057,1058.39 -775.128,1083.21C-671.125,1107.96 -704.25,1089.67 -587.834,1135.14C-515.709,1163.34 -413.91,1197.94 -347.954,1146.45C-323.642,1127.43 -283.761,1084.39 -281.336,1042.45C-279.94,1018.5 -282.144,992.944 -287.872,977.446C-306.896,925.736 -344.942,903.629 -381.077,849.571C-447.255,749.167 -517.544,653.979 -573.733,570.395C-613.395,511.269 -645.271,496.946 -672.227,501.647C-755.077,516.262 -728.341,591.987 -806.049,629.3L-806.048,629.3Z" style="fill:#d69a00;"/><path id="path4738" d="M247.761,543.818C211.268,569.599 219.172,646.871 217.031,687.574C213.781,749.849 213.336,819.289 211.196,846.917C207.649,892.644 173.003,995.919 177.215,1044.67C181.352,1093.36 184.897,1121.87 215.185,1149.8C245.545,1177.72 298.957,1198.55 364.925,1189.02C430.893,1179.49 455.86,1138.49 498.634,1106.43C541.331,1074.37 585.287,1036.33 641.726,1000.13C698.163,963.858 789.028,904.463 802.103,888.434C815.178,872.329 824.043,858.442 814.588,837.314C805.206,816.185 772.259,783.534 736.282,753.837C642.465,676.271 682.968,604.169 643.794,566.052C631.844,553.176 622.962,546.079 609.091,543.255C534.216,528.006 513.646,557.415 469.681,553.095C422.276,548.437 440.097,558.858 342.783,545.873C309.285,542.068 270.885,528.804 247.761,543.815L247.761,543.818Z" style="fill:#d69a00;"/><path id="path4740" d="M-364,-47.995C-397.448,25.148 -395.808,0.295 -418.286,76.748C-449.502,105.074 -483.726,181.179 -506.257,246.688C-535.03,341.897 -556.649,439.789 -529.777,553.661C-519.119,565.238 -510.466,576.185 -500.758,585.38C-485.338,599.985 -468.735,611.825 -448.453,627.241C-376.673,681.794 -326.368,710.598 -316.469,746.075C-303.293,793.299 -332.828,824.529 -369.656,843.731C-342.729,870.672 -256.77,925.867 -100.024,918.969C38.018,912.895 124.583,860.651 198.479,770.51C198.951,749.768 201.221,715.057 202.249,677.589C203.23,641.807 203.436,605.973 208.913,578.183C210.201,571.642 212.669,565.45 214.877,560.003C223.892,537.764 248.157,522.614 271.376,521.522C283.583,520.948 296.397,520.065 308.648,522.606C327.378,376.244 312.546,275.188 238.577,120.18C232.846,109.309 205.441,63.203 189.081,50.19C176.296,-12.358 174.61,-9.29 149.034,-66.55C110.242,-153.388 96.184,-253.762 84.357,-312.747C76.277,-308.561 62.174,-302.683 40.65,-286.008C25.005,-273.814 -3.937,-248.472 -26.121,-233.12C-40.606,-223.092 -56.459,-214.421 -72.056,-207.632C-94.501,-197.858 -116.413,-191.977 -132.927,-191.544C-192.124,-188.413 -220.283,-203.075 -247.273,-231.202C-258.594,-243 -267.169,-255.925 -281.45,-271.696C-287.777,-278.683 -296.532,-287.966 -305.458,-294.344C-305.701,-286.592 -330.553,-121.138 -364,-47.995ZM81.272,-326.19C81.419,-326.338 81.493,-326.558 81.639,-326.705C81.492,-326.558 81.419,-326.338 81.272,-326.19ZM-98.329,-484.857C-100.165,-501.165 -100.68,-530.987 -89.367,-568.523C-71.885,-626.113 -8.711,-664.676 44.765,-637.499C98.242,-610.32 108.121,-539.757 95.303,-499.989C87.425,-475.547 68.727,-446.954 54.607,-429.03C43.662,-433.511 30.145,-438.432 13.325,-444.235C23.021,-449.817 31.689,-458.632 38.081,-470.312C55.783,-502.559 49.466,-544.503 24.123,-564.042C-1.292,-583.582 -36.185,-573.224 -53.815,-540.977C-66.154,-518.499 -66.816,-491.247 -57.487,-470.238C-72.546,-476.04 -85.693,-481.036 -98.329,-484.855L-98.329,-484.857ZM-294.457,-623.249C-244.359,-640.731 -214.39,-598.787 -202.195,-538.775C-198.522,-520.336 -198.229,-501.899 -200.432,-485.004C-201.828,-484.564 -203.222,-483.975 -204.694,-483.388C-210.571,-481.11 -216.888,-478.245 -223.864,-474.646C-222.763,-478.54 -221.954,-482.726 -221.441,-487.133C-217.474,-520.702 -233.341,-555.447 -256.921,-564.629C-280.501,-573.811 -302.832,-553.978 -306.798,-520.409C-310.617,-488.162 -296.147,-454.886 -274.184,-444.162C-276.976,-442.251 -279.84,-440.268 -282.704,-438.212C-286.378,-435.714 -290.05,-432.996 -293.649,-430.206C-311.06,-447.028 -322.737,-474.133 -329.349,-502.634C-341.323,-554.347 -328.395,-611.423 -294.458,-623.249L-294.457,-623.249Z" style="fill:#f5f5f2;"/><path id="path4748" d="M81.272,-326.19C81.419,-326.338 81.493,-326.557 81.639,-326.705C81.492,-326.557 81.419,-326.337 81.272,-326.19ZM-310.716,-315.632C-309.87,-314.736 -310.186,-313.149 -309.243,-312.211C-298.159,-301.172 -285.341,-290.351 -274.164,-277.69C-261.314,-263.133 -249.537,-246.849 -238.6,-236.872C-218.489,-218.525 -199.383,-208.72 -171.472,-205.275C-117.568,-198.622 -77.266,-213.569 -31.808,-243.549C-10.419,-257.661 19.199,-283.678 36.324,-296.541C64.84,-318.003 72.998,-316.312 81.451,-327.115C90.197,-338.359 94.459,-367.758 91.888,-381.649C89.83,-392.38 86.082,-399.508 74.469,-406.859C61.532,-415.016 39.264,-423.615 0.677,-436.698L0.6,-436.77L0.526,-436.77L0.449,-436.843L0.302,-436.843L0.225,-436.916L0.071,-436.916L-0.076,-436.989L-0.153,-436.989L-0.23,-437.062L-0.378,-437.062L-0.455,-437.135L-0.609,-437.135L-0.753,-437.208L-0.83,-437.208L-0.907,-437.281L-1.054,-437.281L-1.131,-437.354L-1.208,-437.354L-1.285,-437.426L-1.506,-437.426L-1.583,-437.499L-1.66,-437.499L-1.804,-437.573L-1.881,-437.573L-1.958,-437.645L-2.179,-437.645L-2.256,-437.718L-2.33,-437.718L-2.477,-437.791L-2.554,-437.791L-2.631,-437.863L-2.708,-437.863L-2.855,-437.936L-3.009,-437.936L-3.086,-438.009L-3.233,-438.009L-3.31,-438.082L-3.387,-438.082L-3.464,-438.155L-3.695,-438.155L-3.772,-438.228L-3.849,-438.228L-3.997,-438.3L-4.074,-438.3L-4.151,-438.373L-4.372,-438.373L-4.449,-438.446L-4.526,-438.446L-4.603,-438.519L-4.757,-438.519L-4.834,-438.592L-4.988,-438.592L-5.135,-438.664L-5.212,-438.664L-5.289,-438.737L-5.366,-438.737L-5.733,-438.884L-6.689,-439.252L-6.833,-439.252L-7.496,-439.472L-7.713,-439.545L-8.228,-439.766L-8.743,-439.913L-8.891,-439.985L-9.625,-440.206L-9.772,-440.278L-10.727,-440.646L-10.945,-440.718L-11.681,-440.938L-11.758,-441.011L-12.713,-441.304L-13.007,-441.451L-13.742,-441.671L-14.697,-442.038L-15.651,-442.406L-15.728,-442.406L-16.39,-442.626L-16.681,-442.699L-17.123,-442.92L-17.638,-443.066L-17.785,-443.139L-18.448,-443.359L-18.595,-443.432L-19.55,-443.799L-19.768,-443.872L-20.43,-444.092L-20.507,-444.092L-21.021,-444.312L-21.462,-444.459L-21.679,-444.533L-22.341,-444.825L-23.296,-445.12L-23.664,-445.267L-24.252,-445.487L-24.329,-445.487L-24.917,-445.782L-25.134,-445.854L-26.09,-446.15L-26.237,-446.222L-26.826,-446.442L-26.97,-446.515L-27.484,-446.662L-27.927,-446.81L-28.074,-446.882L-28.736,-447.177L-28.813,-447.177L-29.328,-447.397L-29.695,-447.545L-29.986,-447.617L-30.574,-447.837L-30.651,-447.837L-31.534,-448.205L-32.415,-448.499L-32.492,-448.572L-33.079,-448.793L-33.3,-448.865L-33.667,-449.012L-34.181,-449.159L-34.258,-449.233L-34.92,-449.452L-35.068,-449.525L-35.508,-449.672L-35.95,-449.82L-36.094,-449.892L-36.682,-450.112L-36.826,-450.185L-37.266,-450.333L-37.634,-450.48L-37.928,-450.553L-38.516,-450.847L-39.104,-451.068L-39.398,-451.14L-40.208,-451.508L-40.285,-451.508L-40.872,-451.728L-41.093,-451.8L-41.46,-451.948L-41.901,-452.095L-41.978,-452.168L-42.566,-452.387L-42.783,-452.461L-43.593,-452.755L-43.74,-452.828L-44.327,-453.049L-44.404,-453.049L-44.918,-453.269L-45.212,-453.416L-45.43,-453.489L-46.016,-453.709L-46.093,-453.709L-46.241,-453.782L-46.388,-453.855L-46.609,-453.927L-46.753,-454L-46.9,-454L-46.9,-454.073L-47.121,-454.073L-47.268,-454.146L-47.485,-454.219L-47.633,-454.292L-47.71,-454.365L-48.004,-454.438L-48.151,-454.51L-48.369,-454.583L-48.516,-454.657L-48.737,-454.729L-48.884,-454.801L-49.028,-454.875L-49.249,-454.948L-49.326,-454.948L-49.403,-455.02L-49.62,-455.02L-49.767,-455.093L-49.915,-455.166L-50.135,-455.238L-50.279,-455.311L-50.5,-455.383L-50.647,-455.457L-50.942,-455.529L-51.019,-455.602L-51.166,-455.675L-51.387,-455.748L-51.534,-455.821L-51.681,-455.893L-51.902,-455.893L-52.049,-455.967L-52.197,-456.039L-52.417,-456.112L-52.494,-456.184L-52.571,-456.184L-52.718,-456.258L-52.939,-456.331L-53.083,-456.403L-53.301,-456.475L-53.448,-456.549L-53.595,-456.622L-53.813,-456.622L-53.96,-456.695L-54.107,-456.767L-54.328,-456.84L-54.475,-456.913L-54.622,-456.985L-54.843,-457.058L-54.99,-457.131L-55.138,-457.203L-55.358,-457.277L-55.505,-457.35L-55.649,-457.35L-55.87,-457.422L-56.017,-457.496L-56.165,-457.568L-56.312,-457.64L-56.389,-457.64L-56.533,-457.714L-56.68,-457.786L-56.827,-457.859L-57.045,-457.932L-57.192,-457.932C-96.365,-473.145 -121.795,-482.995 -157.514,-481.819C-169.935,-481.452 -182.577,-480.055 -200.363,-473L-201.246,-472.632L-202.128,-472.339L-202.128,-472.266L-202.862,-471.971L-203.01,-471.971L-203.01,-471.899L-203.087,-471.899L-203.896,-471.604L-203.896,-471.532L-204.558,-471.312L-204.999,-471.091L-205.513,-470.871L-205.66,-470.799L-205.737,-470.799L-206.47,-470.504L-206.617,-470.431L-206.691,-470.359L-207.5,-469.991L-207.577,-469.991L-208.312,-469.624L-208.456,-469.624L-208.533,-469.551L-209.048,-469.331L-209.195,-469.258L-209.49,-469.111L-210.225,-468.743L-210.302,-468.743L-210.449,-468.67L-210.964,-468.451L-211.255,-468.303L-211.399,-468.23L-211.914,-468.01L-212.061,-467.937L-212.356,-467.79L-212.871,-467.57L-213.165,-467.422L-213.386,-467.275L-213.9,-467.056L-213.977,-467.056L-214.344,-466.835L-214.859,-466.615L-215.374,-466.322L-215.888,-466.102L-216.403,-465.808L-216.918,-465.589L-216.995,-465.516L-217.362,-465.369L-217.439,-465.295L-217.954,-465.076L-218.468,-464.781L-218.983,-464.561L-219.423,-464.266L-219.5,-464.266L-220.015,-463.972L-220.092,-463.972L-220.46,-463.752L-220.537,-463.752L-221.124,-463.457L-221.564,-463.162L-221.641,-463.162L-222.156,-462.868L-222.671,-462.573L-223.258,-462.281L-223.773,-462.06L-223.773,-461.988L-224.361,-461.693L-224.875,-461.473L-224.875,-461.4L-225.463,-461.106L-225.903,-460.886L-225.98,-460.812L-226.568,-460.52L-227.081,-460.225L-227.669,-459.931L-228.257,-459.563C-229.36,-458.975 -230.536,-458.314 -231.711,-457.652L-232.299,-457.285L-232.886,-456.989L-233.253,-456.77L-233.916,-456.328L-234.283,-456.108L-234.36,-456.108L-234.437,-456.036L-235.024,-455.741L-235.392,-455.52L-235.686,-455.301L-236.422,-454.86L-236.789,-454.64L-237.523,-454.273L-237.892,-454.053L-238.993,-453.391L-239.361,-453.171L-240.095,-452.731L-240.463,-452.436L-241.272,-451.996L-241.64,-451.776L-242.595,-451.188L-242.672,-451.116L-242.749,-451.116L-243.116,-450.895L-243.924,-450.381L-244.291,-450.16L-245.026,-449.72L-245.103,-449.647L-245.18,-449.647L-245.18,-449.575L-245.257,-449.575L-245.334,-449.502L-245.411,-449.502L-245.411,-449.428L-245.488,-449.428L-245.565,-449.356L-245.712,-449.284L-245.789,-449.284L-246.156,-448.991L-246.233,-448.991L-246.31,-448.919L-246.387,-448.845L-246.541,-448.845L-246.541,-448.772L-246.618,-448.772L-246.695,-448.7L-246.772,-448.7L-246.772,-448.627L-246.849,-448.627L-247.731,-448.039L-247.808,-448.039L-247.885,-447.966L-248.252,-447.746L-249.062,-447.232L-249.429,-447.011L-249.506,-446.938L-250.241,-446.498L-250.682,-446.203L-251.051,-445.983L-251.492,-445.689L-251.859,-445.469L-252.3,-445.174L-253.109,-444.66L-253.55,-444.365L-254.359,-443.85L-254.726,-443.556L-255.167,-443.336L-255.606,-443.041L-255.974,-442.747L-256.415,-442.528L-256.855,-442.236L-257.294,-441.941L-257.662,-441.646L-257.956,-441.499L-258.47,-441.132L-258.765,-440.984L-259.056,-440.764L-259.35,-440.617L-259.571,-440.397L-259.865,-440.25L-260.16,-440.03L-260.454,-439.882L-260.675,-439.662L-261.262,-439.295L-261.553,-439.148L-261.771,-438.928L-262.065,-438.78L-262.36,-438.56L-262.437,-438.56L-262.658,-438.413L-262.952,-438.193L-263.17,-438.046L-263.464,-437.826L-263.758,-437.606L-264.053,-437.459L-264.347,-437.238L-264.641,-437.091L-264.936,-436.871L-265.157,-436.651L-265.374,-436.578L-265.451,-436.505L-265.746,-436.285L-266.333,-435.918L-266.627,-435.697L-266.922,-435.55L-267.511,-435.11L-267.802,-434.963L-268.096,-434.743L-268.611,-434.303L-268.906,-434.155L-269.2,-433.935L-269.494,-433.715L-269.789,-433.568L-269.866,-433.495L-270.087,-433.348L-270.381,-433.127L-270.675,-432.908L-270.97,-432.76L-271.264,-432.541L-271.411,-432.467L-271.558,-432.32L-271.853,-432.1L-272.22,-431.88L-272.734,-431.513L-272.811,-431.513L-272.955,-431.365L-273.102,-431.293L-273.397,-431.073L-273.691,-430.853L-274.278,-430.485L-274.499,-430.265L-274.573,-430.265L-274.864,-430.045L-276.114,-429.163C-294.341,-416.447 -313.011,-399.544 -323.814,-382.197C-330.218,-371.933 -340.354,-350.756 -330.898,-338.579C-330.866,-338.547 -306.749,-326.189 -282.533,-311.869C-243.384,-288.72 -198.664,-276.763 -158.736,-278.987C-126.98,-280.755 -91.533,-290.786 -65.937,-303.105C-40.177,-315.505 -8.501,-335.06 22.373,-358.883C27.151,-362.411 36.252,-371.348 41.943,-374.044C46.96,-376.421 63.133,-375.043 62.39,-369.55C61.809,-365.249 42.815,-357.573 35.969,-352.488C2.195,-327.403 -35.406,-302.835 -59.845,-291.571C-85.095,-279.933 -127.591,-266.496 -156.313,-264.801C-182.553,-263.253 -204.834,-266.164 -227.645,-273.877C-249.697,-281.334 -262.771,-287.809 -286.252,-301.371C-293.741,-305.696 -300.94,-309.307 -311.075,-315.635L-310.716,-315.632Z" style="fill:#d69a00;"/><path id="path4762" d="M-522.157,106.583C-597.351,188.276 -622.537,301.758 -610.966,396.901C-603.846,455.652 -572.217,504.229 -535.632,546.744C-529.15,554.277 -522.959,561.815 -516.243,568.995C-514.979,570.346 -546.663,546.659 -552.225,541.845C-675.614,435.072 -648.35,223.081 -525.295,104.483C-521.255,100.589 -516.498,100.434 -522.157,106.583L-522.157,106.583Z" style="fill:#f5f5f2;"/><path id="path4766" d="M291.288,86.842C367.095,166.21 393.797,251.33 391.387,339.044C390.27,379.748 373.215,431.241 364.47,463.235C347.016,527.1 379.255,479.992 387.031,458.775C400.364,422.4 409.545,364.53 408.063,321.932C404.508,219.731 358.577,141.007 293.117,86.248C289.864,83.528 286.778,82.118 291.288,86.842Z" style="fill:#f5f5f2;"/><path id="path4768" d="M552.041,533.168C553.331,530.747 555.942,521.037 556.14,519.065C561.073,469.894 465.419,458.829 390.965,461.313C357.181,462.439 330.852,466.424 315.128,471.066C287.734,479.154 274.246,497.706 271.211,520.916C265.067,567.902 279.009,667.161 325.63,688.877C373.84,711.334 446.85,679.279 489.947,630.928C519.131,598.188 537.716,560.069 552.041,533.168Z" style="fill:#5c6a72;"/><path id="path4770" d="M290.209,509.356C278.213,523.703 354.658,512.84 406.38,522.594C435.213,528.032 458.848,544.352 477.129,544.944C530.672,546.68 538.298,516.198 496.11,492.951C442.453,463.385 317.339,476.907 290.209,509.356Z" style="fill:#f5f5f2;"/></g></g></g></g></g><g transform="matrix(0.0186989,0,0,0.0186989,1512.47,994.735)"><g transform="matrix(1,0,0,1,-875,-1341.67)"><g id="path1" transform="matrix(4.16667,0,0,4.16667,-375,-250)"><path d="M302.313,83.563C173.537,277.525 130.104,475.029 115.063,678.469C198.569,571.914 272.07,502.069 326.063,469.625C385.674,433.805 437.014,490.462 487.469,630.344C453.991,447.802 430.842,269.17 302.313,83.563ZM303.344,157.063L322.063,310.063L367.125,325.406L326.156,347.156L331.563,395.969L303.844,348.688L274.656,397.75L280.563,346.375L238.875,325.375L284.125,310.375L303.344,157.063Z" style="fill:#5c6a72;fill-opacity:0.9;stroke:#d69a00;stroke-opacity:0.9;stroke-width:1px;"/></g></g></g></g></svg>